<svg height="200px" width="200px" version="1.1" id="Layer_1" xmlns="http://www.w3.org/2000/svg" xmlns:xlink="http://www.w3.org/1999/xlink" viewBox="0 0 512 512" xml:space="preserve" fill="#000000"><g id="SVGRepo_bgCarrier" stroke-width="0"></g><g id="SVGRepo_tracerCarrier" stroke-linecap="round" stroke-linejoin="round"></g><g id="SVGRepo_iconCarrier"> <circle style="fill:#FFDC64;" cx="256" cy="256" r="247.409"></circle> <path style="fill:#FFC850;" d="M301.053,458.357c-136.64,0-247.409-110.77-247.409-247.409c0-56.834,19.211-109.155,51.429-150.928 C46.416,105.26,8.591,176.194,8.591,256c0,136.64,110.77,247.409,247.409,247.409c79.806,0,150.74-37.825,195.98-96.482 C410.207,439.146,357.888,458.357,301.053,458.357z"></path> <g> <path style="fill:#464655;" d="M224.114,200.396L155.889,81.051C95.272,115.813,54.407,181.113,54.407,256 c-0.048,0.058,97.657,0.093,128.342,0.031c4.939-0.01,9.019-3.678,9.673-8.575C195.113,227.291,207.2,210.117,224.114,200.396z"></path> <path style="fill:#464655;" d="M287.889,311.603c-9.4,5.404-20.268,8.54-31.889,8.54c-11.642,0-22.528-3.149-31.94-8.571 c-20.113,35.075-44.608,77.87-68.323,119.291c29.538,16.974,63.751,26.729,100.264,26.729c36.519,0,70.738-9.76,100.28-26.741 L287.889,311.603z"></path> <path style="fill:#464655;" d="M287.886,200.396l68.225-119.345C416.728,115.813,457.593,181.113,457.593,256 c0.048,0.058-97.657,0.093-128.342,0.031c-4.939-0.01-9.019-3.678-9.673-8.575C316.887,227.291,304.8,210.117,287.886,200.396z"></path> <circle style="fill:#464655;" cx="256" cy="256" r="27.49"></circle> </g> <path d="M437.02,74.98C388.668,26.629,324.38,0,256,0S123.332,26.629,74.98,74.98C26.629,123.332,0,187.62,0,256 s26.629,132.668,74.98,181.02C123.332,485.371,187.62,512,256,512s132.668-26.629,181.02-74.98C485.371,388.668,512,324.38,512,256 S485.371,123.332,437.02,74.98z M256,494.819C124.315,494.819,17.181,387.685,17.181,256S124.315,17.181,256,17.181 S494.819,124.315,494.819,256S387.685,494.819,256,494.819z"></path> <path d="M200.457,256.174c0-0.132-0.002-0.262-0.008-0.392c0.078-19.714,10.771-38.067,27.946-47.939 c4.106-2.361,5.528-7.6,3.177-11.712l-39.854-69.714c-2.355-4.119-7.604-5.548-11.721-3.195c-4.119,2.355-5.55,7.603-3.195,11.721 l35.851,62.714c-16.062,11.957-26.559,30.091-28.894,49.925H63.181c1.378-31.671,10.513-62.529,26.627-89.726 c15.567-26.275,37.232-48.571,62.987-64.908l6.596,11.54c2.355,4.119,7.602,5.548,11.721,3.195c4.119-2.355,5.55-7.602,3.195-11.721 l-10.962-19.175c-1.132-1.98-3.004-3.428-5.205-4.026c-2.199-0.597-4.548-0.297-6.527,0.837 c-31.565,18.102-58.048,44.21-76.589,75.501C55.917,181.351,45.817,218.317,45.817,256c0,0.118,0.002,0.234,0.006,0.353 c0.095,4.662,3.905,8.412,8.589,8.412h137.454C196.61,264.765,200.457,260.918,200.457,256.174z"></path> <path d="M397.129,124.413c1.692,1.812,3.984,2.728,6.281,2.728c2.1,0,4.204-0.765,5.86-2.31c3.468-3.237,3.655-8.673,0.418-12.143 c-3.04-3.256-6.225-6.459-9.47-9.52c-3.451-3.255-8.888-3.097-12.144,0.355c-3.255,3.451-3.096,8.888,0.355,12.144 C391.411,118.479,394.337,121.421,397.129,124.413z"></path> <path d="M432.143,141.335c-2.594-3.973-7.918-5.089-11.889-2.497c-3.972,2.594-5.09,7.917-2.497,11.889 c18.911,28.965,29.575,62.29,31.066,96.857H328.241c-2.346-19.991-12.957-38.216-29.205-50.168l59.839-104.676 c0.797,0.503,1.59,1.011,2.376,1.525c3.975,2.59,9.296,1.471,11.888-2.505c2.591-3.975,1.47-9.297-2.505-11.888 c-3.456-2.253-7.023-4.432-10.601-6.475c-4.118-2.352-9.364-0.921-11.718,3.197l-68.221,119.337 c-1.134,1.983-1.431,4.335-0.826,6.538c0.605,2.203,2.062,4.073,4.049,5.199c17.358,9.836,28.161,28.267,28.233,48.134 c-0.005,0.132-0.008,0.263-0.008,0.373c0,4.744,3.846,8.591,8.591,8.591h137.454c4.687,0,8.497-3.754,8.589-8.419 c0.003-0.111,0.006-0.258,0.006-0.347C466.183,215.096,454.412,175.444,432.143,141.335z"></path> <path d="M295.342,307.329c-1.134-1.978-3.008-3.424-5.208-4.018c-2.199-0.596-4.548-0.291-6.524,0.844 c-8.419,4.839-17.966,7.397-27.608,7.397c-9.659,0-19.221-2.567-27.653-7.423c-1.977-1.14-4.325-1.444-6.528-0.85 c-2.203,0.596-4.078,2.041-5.213,4.02c-16.714,29.146-36.453,63.624-56.256,98.215l-12.07,21.081 c-2.355,4.113-0.934,9.356,3.175,11.716c31.731,18.233,67.882,27.871,104.543,27.871c36.668,0,72.825-9.641,104.561-27.883 c4.111-2.363,5.53-7.609,3.172-11.722L295.342,307.329z M256,449.002c-30.794,0-61.194-7.404-88.451-21.481l7.712-13.471 c18.233-31.846,36.41-63.597,52.223-91.18c9.005,3.853,18.719,5.863,28.516,5.863c9.777,0,19.472-2.002,28.462-5.839l60,104.62 C317.203,441.595,286.798,449.002,256,449.002z"></path> <path d="M219.919,256c0,19.895,16.186,36.081,36.081,36.081s36.081-16.186,36.081-36.081c0-2.081-0.18-4.169-0.534-6.206 c-0.811-4.674-5.255-7.808-9.934-6.993c-4.674,0.812-7.805,5.26-6.993,9.934c0.186,1.069,0.279,2.167,0.279,3.266 c0,10.421-8.478,18.899-18.899,18.899s-18.899-8.478-18.899-18.899s8.478-18.899,18.899-18.899c1.061,0,2.124,0.088,3.162,0.262 c4.685,0.787,9.107-2.376,9.891-7.055c0.783-4.679-2.374-9.107-7.055-9.891c-1.972-0.331-3.991-0.498-5.999-0.498 C236.105,219.919,219.919,236.105,219.919,256z"></path> </g></svg>